{"title":"Greatest Hits Of 1990 Telstar","uid":4823913,"size":144355580,"categoryP":"audio","categoryS":"music","magnet":"?xt=urn:btih:982bd4bec3273bc6a92a214eafdbd593ba9971d5&amp;dn=Greatest+Hits+Of+1990+Telstar&amp;tr=udp%3A%2F%2Ftracker.openbittorrent.com%3A80&amp;tr=udp%3A%2F%2Fopen.demonii.com%3A1337&amp;tr=udp%3A%2F%2Ftracker.coppersurfer.tk%3A6969&amp;tr=udp%3A%2F%2Fexodus.desync.com%3A6969","seeders":1,"leechers":0,"uploader":"matt7333","files":15,"time":1238870073,"description":"Sorry the listing is like this\n\n\n    PERFORMER &quot;Adamski&quot;\n    INDEX 01 00:00:00\n  TRACK 02 AUDIO\n    TITLE &quot;Love Shack&quot;\n    PERFORMER &quot;The B52's&quot;\n    INDEX 00 04:11:50\n    INDEX 01 04:12:45\n  TRACK 03 AUDIO\n    TITLE &quot;Opposites Attract&quot;\n    PERFORMER &quot;Paula Abdul &amp; The Wild Pair&quot;\n    INDEX 00 08:29:31\n    INDEX 01 08:30:40\n  TRACK 04 AUDIO\n    TITLE &quot;Happenin' All Over Again&quot;\n    PERFORMER &quot;Lonnie Gordon&quot;\n    INDEX 00 13:02:13\n    INDEX 01 13:03:40\n  TRACK 05 AUDIO\n    TITLE &quot;Dub Be Good To Me&quot;\n    PERFORMER &quot;Beats International &amp; Lindy Layton&quot;\n    INDEX 00 16:19:55\n    INDEX 01 16:20:10\n  TRACK 06 AUDIO\n    TITLE &quot;Mona&quot;\n    PERFORMER &quot;Craig McLachlan&quot;\n    INDEX 00 21:39:57\n    INDEX 01 21:40:40\n  TRACK 07 AUDIO\n    TITLE &quot;Could Have Told You So&quot;\n    PERFORMER &quot;Halo James&quot;\n    INDEX 00 25:25:52\n    INDEX 01 25:26:32\n  TRACK 08 AUDIO\n    TITLE &quot;The Power&quot;\n    PERFORMER &quot;Snap!&quot;\n    INDEX 00 29:17:42\n    INDEX 01 29:19:07\n  TRACK 09 AUDIO\n    TITLE &quot;Get Up (Before The Night Is Over)&quot;\n    PERFORMER &quot;Technotronic &amp; Ya Kid K&quot;\n    INDEX 00 33:05:35\n    INDEX 01 33:06:62\n  TRACK 10 AUDIO\n    TITLE &quot;Doin' The Do&quot;\n    PERFORMER &quot;Betty Boo&quot;\n    INDEX 00 36:52:00\n    INDEX 01 36:53:17\n  TRACK 11 AUDIO\n    TITLE &quot;Hear The Drummer (Get Wicked)&quot;\n    PERFORMER &quot;Chad Jackson&quot;\n    INDEX 00 40:29:22\n    INDEX 01 40:30:17\n  TRACK 12 AUDIO\n    TITLE &quot;Groovy Train&quot;\n    PERFORMER &quot;The Farm&quot;\n    INDEX 00 44:12:03\n    INDEX 01 44:12:40\n  TRACK 13 AUDIO\n    TITLE &quot;Hold On&quot;\n    PERFORMER &quot;En Vogue&quot;\n    INDEX 00 48:15:43\n    INDEX 01 48:16:55\n  TRACK 14 AUDIO\n    TITLE &quot;Lambada&quot;\n    PERFORMER &quot;Kaoma&quot;\n    INDEX 00 52:40:20\n    INDEX 01 52:41:25\n  TRACK 15 AUDIO\n    TITLE &quot;Infinity&quot;\n    PERFORMER &quot;Guru Josh&quot;\n    INDEX 00 56:09:43\n    INDEX 01 56:10:45","torrent":{"xt":"urn:btih:982bd4bec3273bc6a92a214eafdbd593ba9971d5","amp;dn":"Greatest+Hits+Of+1990+Telstar","amp;tr":["udp%3A%2F%2Ftracker.openbittorrent.com%3A80","udp%3A%2F%2Fopen.demonii.com%3A1337","udp%3A%2F%2Ftracker.coppersurfer.tk%3A6969","udp%3A%2F%2Fexodus.desync.com%3A6969"],"infoHash":"982bd4bec3273bc6a92a214eafdbd593ba9971d5","infoHashBuffer":{"type":"Buffer","data":[152,43,212,190,195,39,59,198,169,42,33,78,175,219,213,147,186,153,113,213]},"announce":[],"urlList":[]}}